<?xml version="1.0" encoding="utf-8"?>
<!DOCTYPE svg PUBLIC "-//W3C//DTD SVG 1.0//EN" "http://www.w3.org/TR/2001/REC-SVG-20010904/DTD/svg10.dtd">
<svg version="1.0" xmlns="http://www.w3.org/2000/svg" width="1408px" height="786px" viewBox="0 0 1408 786" preserveAspectRatio="xMidYMid meet">
 <g fill="#ffffff">
  <path d="M0 392.9 l0 -392.9 704 0 704 0 0 392.9 0 392.9 -704 0 -704 0 0 -392.9z m815.6 174 c8.2 -1.5 17.6 -6.3 22.9 -11.7 4.3 -4.3 11.8 -17.5 11.8 -20.8 0 -1.8 6.1 -1.7 13 0.3 4.2 1.2 8.9 1.5 18.5 1.2 11.7 -0.3 13.6 -0.6 18.7 -3.1 3.2 -1.6 7.2 -2.9 8.8 -2.9 1.7 0 5.3 1.2 8.1 2.9 5 2.8 5.1 2.8 24.5 2.8 18.2 0 19.7 -0.1 23.7 -2.4 5.3 -2.8 9.1 -8.2 10.5 -15 0.6 -3.2 0.9 -18.5 0.8 -40.9 l-0.3 -35.8 -3.1 0.3 c-1.6 0.2 -4.6 0.8 -6.3 1.3 l-3.4 1.1 0 36.8 0 36.8 -3 3 -3 3 -16.4 0 c-26 0 -26.1 -0.1 -26.8 -26.1 -0.5 -17.1 -0.5 -17.4 -2.9 -17.7 -1.2 -0.2 -3.9 0.2 -5.8 0.8 l-3.6 1.2 0 14.9 c0 25.9 -0.3 26.2 -22 26.6 -17.5 0.4 -21.8 -0.6 -24.4 -5.6 -1.1 -2.3 -1.5 -10.6 -2 -39.5 -0.3 -20.3 -0.8 -36.9 -1 -37.1 -0.2 -0.3 -3 0.3 -5.9 1.3 l-5.5 1.8 -0.6 42 c-0.6 43.1 -0.8 45.4 -5.1 53.8 -2.1 4.4 -8.2 9.8 -12.8 11.8 -5.2 2.1 -23.3 1.8 -28.5 -0.5 -5.8 -2.6 -10.2 -8.1 -11.8 -14.4 -1.7 -7.3 -0.8 -20.9 1.8 -26.8 1.8 -4.3 1.8 -4.7 0.3 -6.9 l-1.6 -2.1 -3.8 3.8 c-7.6 7.8 -11.5 21.2 -9.1 31.8 2.7 12.5 9.1 20.8 20.1 25.9 9.8 4.6 16.3 5.6 25.2 4z m86.3 -4 c1.3 -2.6 1.3 -3.2 -0.4 -6 -2.9 -4.7 -8.1 -4.3 -10.6 0.7 -1.7 3.3 -0.3 6.8 3.6 8.9 3 1.5 5.4 0.4 7.5 -3.6z m22.5 0.7 c2.3 -3.2 2 -4.2 -1.3 -7.9 -2.8 -3 -3.3 -3.1 -5.7 -1.9 -1.5 0.6 -3.4 2.6 -4.2 4.1 -1.5 2.9 -1.4 3.1 2 6.5 4 4 6 3.8 9.2 -0.8z m-439.9 -13.1 c1.7 -0.7 1.5 -0.9 -1.2 -0.9 -8.1 -0.2 -11.6 -4.9 -11.6 -15.7 0 -7.4 2 -12.4 6.4 -15.6 2.4 -1.7 4.4 -2.1 11.8 -2.1 l8.9 0 0.3 8.6 c0.3 8 -0.5 14.4 -2.4 18.8 -0.6 1.4 -0.2 1.7 2 1.7 1.7 0 3.5 0.9 4.8 2.6 1.4 1.8 3 2.6 5.6 2.6 l3.6 0 -0.4 -22.7 c-0.5 -25.7 -1.3 -29.6 -7.6 -36 -5.1 -5.2 -14.9 -8.1 -23.9 -6.9 l-6.7 0.8 7.9 0.2 c6.9 0.1 8.2 0.4 10.9 2.8 4.1 3.4 5.4 8.3 5 17.8 l-0.3 7.7 -10.2 0.6 c-12.5 0.7 -17.7 2.3 -22.9 6.7 -5.4 4.6 -7.7 10.4 -6.2 15.9 1.3 4.9 7.5 11.4 12.3 12.9 4.3 1.3 11.1 1.5 13.8 0.3z m122.3 0.1 c1.8 -0.6 0.2 -0.9 -5.3 -1.2 -7.4 -0.4 -8.2 -0.7 -11.6 -4 -4.4 -4.3 -6.8 -11.6 -7.1 -21.4 l-0.1 -6.8 21.5 0 21.5 0 0.3 -4.2 c0.4 -5.7 -3.2 -14.7 -7.8 -19.5 -5.6 -5.7 -12.2 -8.5 -19.3 -8.3 l-5.9 0.2 5.8 0.3 c5 0.3 6.2 0.8 8.4 3.5 3.5 4.1 4.7 9 4.7 18.6 l0 8 -14.5 -0.3 -14.6 -0.3 0.1 -5.6 c0.1 -10.5 1.3 -15.2 5.2 -19.5 4.5 -5 2.5 -5.3 -4.4 -0.6 -16.1 10.6 -19.2 34.4 -7 50.5 6.7 8.8 20.2 13.5 30.1 10.6z m73.7 0 c1.8 -0.6 0.2 -0.9 -5.3 -1.2 -8.8 -0.5 -11.6 -2.3 -15.1 -9.2 -2.3 -4.2 -4.4 -15.6 -3.9 -20 l0.3 -3 22 0 22 0 -0.1 -4.7 c-0.1 -15 -12.9 -27.7 -27.5 -27.3 -6 0.2 -6 0.2 -1 0.5 6.9 0.5 9.5 1.9 12.1 7 1.5 3 2.3 6.7 2.6 13.6 l0.4 9.5 -15.1 -0.3 -15.2 -0.3 0.1 -6.7 c0.2 -9 1.9 -14.6 5.6 -18.9 1.7 -1.9 2.7 -3.6 2 -3.6 -2.6 0 -9.1 4.2 -12.7 8.1 -9.7 10.7 -11.8 25.5 -5.5 38.9 6.1 13.1 22.1 21.2 34.5 17.6z m-278.4 -1.2 c8.1 -1.3 19.4 -6.5 25.3 -11.6 14.6 -12.5 19.1 -35.3 10.6 -53.5 -4.1 -8.8 -10.1 -14.9 -18.8 -19.2 -10.9 -5.4 -18.5 -6.7 -41.9 -6.7 l-20.2 0 1.7 2.8 c1.6 2.6 1.8 6.7 2.1 46 l0.3 43.3 17 0 c9.4 0 20.1 -0.5 23.7 -1.1z m147.5 -36.6 c0 -21.2 -0.4 -40.1 -1 -43.2 -0.7 -3.5 -2 -6.4 -3.8 -8.3 -2.4 -2.5 -3.6 -2.9 -8.3 -2.9 l-5.6 0 1.9 2.1 c1.8 2 1.9 4.5 2.3 46 l0.3 43.9 7.1 0 7.2 0 0 -37.8z m184.2 -2.9 c0 -37.8 -0.2 -41 -1.9 -45 -1.1 -2.4 -2.9 -4.7 -4 -5.3 -2.4 -1.2 -13.7 -1.5 -11.9 -0.3 3.8 2.5 4 4.9 4.3 48.6 l0.4 42.7 6.5 0 6.5 0 0 -40.6z m319.4 23.5 c1.8 -4.6 0.5 -23.2 -2 -30.9 -4.8 -14.1 -13.2 -22.8 -25.6 -26.7 -10.7 -3.4 -13.7 -2.5 -14.8 4.7 l-0.6 4.2 6.2 0.7 c11.3 1.1 19.9 7.8 23.2 17.9 0.7 1.9 1.2 7.4 1.2 12 l0 8.6 -21.9 0 c-12.1 0 -22.2 0.4 -22.5 0.8 -0.3 0.5 -0.8 3.3 -1.2 6.1 l-0.7 5.3 28.9 0 28.8 0 1.1 -2.8z m-586.2 -38.9 c0.4 -1.7 2.3 -4.4 4 -5.8 2 -1.7 2.6 -2.7 1.5 -2.7 -2.6 0 -7.8 5.3 -8.8 9 -0.8 2.9 -0.7 3.4 0.7 3.1 0.9 -0.2 2 -1.7 2.6 -3.6z m248.1 -79.2 c4.6 -1.6 7.5 -3.8 12.8 -9.2 l6.9 -7.1 57.9 0 c31.8 0 57.8 -0.2 57.8 -0.4 0 -0.2 -0.7 -3.2 -1.4 -6.4 -0.8 -3.3 -2.3 -12.4 -3.3 -20.3 -1.8 -16.2 -2.3 -16.9 -9.6 -16.9 -4.5 0 -4.8 -0.1 -6 -3.8 -0.7 -2.1 -2.8 -7.3 -4.4 -11.3 l-3.1 -7.5 -6.2 0 c-8.1 0 -29.6 2.6 -40.1 4.7 -15.6 3.2 -33.5 10.6 -45.5 18.8 -7.5 5.1 -17.6 15.1 -20.5 20.4 -2 3.6 -2.9 4.2 -5.8 4.2 -2.7 0 -3.7 -0.6 -4.8 -3 -4.6 -8.8 -19.2 -21.2 -33.9 -28.5 -20.8 -10.3 -51.5 -17.3 -72.7 -16.4 l-7.2 0.3 -4.6 11.3 -4.6 11.3 -5.9 0.3 c-3.2 0.2 -5.8 0.7 -5.8 1.1 0 3.3 -5.2 36 -6 38.3 -0.6 1.6 -1.1 3.1 -1.1 3.4 0 0.2 26.2 0.4 58.2 0.4 l58.3 0 4.2 5 c10.2 12.1 23.2 16.1 36.5 11.3z m-18.7 -210 c3.3 -4.8 11.8 -5.2 15 -0.7 1.6 2.3 1.9 5.8 2.5 33.3 0.2 16.9 0.5 48.3 0.5 69.9 l0 39.2 2.5 -1.8 c1.4 -1 3 -2.9 3.6 -4.2 1.6 -3.4 1.5 -124.9 0 -130.2 -0.7 -2.1 -3 -6.2 -5.1 -9.1 -5.7 -7.6 -5.5 -11.8 0.6 -18.4 2.5 -2.7 7 -6.2 9.9 -7.9 5.1 -2.9 6 -3 17.7 -3 l12.3 0.1 14.6 6.3 c8 3.5 16 6.7 17.6 7.1 5.8 1.1 4.8 5.1 -12.9 47 -8.8 20.8 -16.7 39.7 -17.5 42.2 -0.8 2.4 -2.5 4.8 -3.5 5.4 -2.5 1.3 -2.5 2.4 0.5 8.6 5.3 11.6 18.4 22 31.8 25.6 14.4 3.7 30.1 -0.2 41.4 -10.4 6.1 -5.5 10.7 -12 12.9 -17.9 1.4 -4.2 1.4 -4.5 -0.5 -6 -1.1 -0.9 -4.1 -6.7 -6.5 -12.8 -2.6 -6.1 -10.6 -25.2 -18 -42.3 -8.1 -18.7 -13.4 -32.4 -13.4 -34.5 0 -2.9 0.5 -3.6 4.6 -5.5 5.2 -2.6 9.6 -7.7 7.9 -9.4 -0.7 -0.7 -2.3 -0.1 -4.9 1.8 -3.6 2.8 -4.5 3 -12.6 2.9 -8.1 0 -9.7 -0.4 -20.6 -5 -23.4 -9.7 -27.3 -10.8 -35.6 -10.3 -8 0.6 -14.3 3.3 -22.8 9.4 -3 2.1 -5.9 3.5 -8 3.5 l-3.2 0 0 -8.3 c0 -8 0.1 -8.4 3.6 -12.5 4.7 -5.4 5.3 -8.2 3.2 -12.9 -2.1 -4.3 -8.9 -14.4 -9.7 -14.4 -1.1 0 -10.1 14.7 -10.8 17.5 -0.8 3.2 1.1 7.5 5 11.1 2.5 2.4 2.7 3.2 2.7 11.1 l0 8.5 -3.5 0 c-2.6 0 -4.7 -1 -8 -3.8 -2.4 -2 -7 -4.9 -10 -6.3 -4.7 -2.3 -7 -2.6 -14.3 -2.5 -9.3 0.1 -9.9 0.3 -33.3 9.9 -10.5 4.4 -11.9 4.7 -20.6 4.7 -8.3 0 -9.7 -0.3 -13.2 -2.7 -2.7 -1.8 -4.2 -2.3 -4.9 -1.5 -1.5 1.5 3.8 7.1 9.3 9.5 3.5 1.5 4.3 2.5 4.3 4.7 0 1.5 -6.2 17.3 -13.9 35 -7.7 17.7 -15.8 36.8 -18 42.5 -2.3 5.6 -4.9 11.2 -6 12.4 -2.6 2.8 -2.5 3.7 1.4 10.9 4.5 8.7 12.1 16.1 20.2 19.9 12.3 5.8 22.1 6.8 33.4 3.3 12 -3.7 21 -10.1 27.1 -19.5 5.1 -8 5.7 -11.2 3.1 -14.8 -1.1 -1.5 -5.5 -11.2 -9.6 -21.3 -4.2 -10.1 -12.1 -28.9 -17.5 -41.6 -5.9 -14.2 -9.8 -24.6 -9.8 -26.7 0 -3.2 0.4 -3.6 3.2 -4.2 1.7 -0.3 8.4 -2.9 14.8 -5.6 15.9 -7 20.8 -8.3 31.1 -8.3 7.9 0 9.6 0.4 15 3.1 3.5 1.7 8.3 5.3 10.9 8.2 4.3 4.5 4.7 5.5 4.7 10 0 4 -0.5 5.4 -2.7 7.5 -1.4 1.3 -3.7 4.3 -4.8 6.5 -2.3 4.1 -2.3 4.8 -2.6 68.3 l-0.3 64.2 3.4 3.8 3.4 3.8 0.5 -69.5 c0.5 -65.7 0.6 -69.6 2.5 -72.3z"/>
  <path d="M378.6 548.3 l-2.6 -1.4 -0.3 -42.6 -0.2 -42.6 3.2 -1.1 c5.1 -1.7 16.4 -1.3 23.6 0.9 9 2.8 14.1 7.5 18.9 17.2 l3.9 7.8 0 17.4 c0 15.8 -0.2 18 -2.3 23.1 -3.7 8.8 -9.2 15.3 -16.1 18.9 -5.2 2.6 -7.3 3.1 -15.9 3.4 -6.8 0.2 -10.6 -0.1 -12.4 -1z"/>
  <path d="M693.4 408.8 c-4.9 -1.7 -8.9 -5.6 -12.2 -11.8 l-2.5 -4.6 -55.1 -0.3 c-30.4 -0.1 -55.6 -0.6 -56.1 -1.1 -1.1 -1.1 1.1 -23.2 2.6 -26.1 1 -1.8 2.3 -1.8 23.7 -1.3 43.9 1.1 75 9.2 98.9 25.6 10.4 7.1 10.6 7.2 14.4 5.2 1.8 -0.9 5.6 -3.5 8.5 -5.5 21.5 -15.8 61.9 -25.6 105.5 -25.6 l17.6 0 1.2 11.6 c0.6 6.3 1 12.7 0.8 14 l-0.3 2.6 -55.7 0.5 c-35.7 0.3 -55.9 0.9 -56.1 1.5 -2 5.8 -5.7 10.6 -9.9 13.6 -4.6 3.1 -5.5 3.3 -13.3 3.3 -4.5 -0.1 -10.1 -0.7 -12.3 -1.5z"/>
  <path d="M718.3 375.1 c0 -2.8 0.9 -4.2 4.4 -7.5 18 -16.6 47.3 -26.2 83.7 -27.6 l15 -0.6 1.6 5.2 c1 2.9 1.6 6.5 1.4 8.1 l-0.3 2.9 -13.8 0.8 c-28.3 1.6 -58.8 8.6 -77.4 17.6 -5 2.6 -10.4 4.6 -12 4.6 -2.5 0 -2.8 -0.4 -2.8 -3.5z"/>
  <path d="M672.4 372.9 c-18.4 -8.9 -47 -15.2 -73.6 -16.6 l-14 -0.7 -0.3 -3.4 c-0.2 -1.8 0.5 -5.5 1.4 -8.1 l1.8 -4.7 14.8 0.6 c21.2 0.8 44.4 5.6 60.1 12.6 7.1 3.1 15.7 8.6 22.2 13.9 4 3.4 4.8 4.7 4.8 7.6 0 3.4 -0.1 3.5 -3.8 3.4 -2.4 0 -7.8 -1.9 -13.5 -4.6z"/>
  <path d="M595.2 307.1 c-11.3 -3.7 -18.1 -10 -18.1 -16.6 l0 -4 34.8 0 34.8 0 0 3.6 c0 4.8 -5.8 10.7 -14.9 15 -6.5 3.2 -7.9 3.4 -18.8 3.6 -9.3 0.2 -13 -0.1 -17.7 -1.6z"/>
  <path d="M782.8 307.6 c-6.5 -1.8 -10.8 -4.3 -16 -9 -3.8 -3.6 -4.5 -4.7 -4.5 -8.1 l0 -4 34.8 0 34.8 0 0 3.9 c0 3.2 -0.7 4.6 -4.3 8.1 -2.5 2.4 -7.2 5.6 -10.5 7.2 -5.5 2.6 -7.4 2.9 -17.9 3.1 -7.2 0.1 -13.6 -0.3 -16.4 -1.1z"/>
  <path d="M576.8 279.7 c-1.9 -1.8 0.4 -8.6 14 -40.7 8.2 -19.1 15.3 -36.1 15.9 -37.7 1 -2.6 1.5 -2.9 4.9 -2.6 3.7 0.3 3.8 0.4 7.8 10 2.1 5.3 9.3 22.1 15.8 37.2 8.2 19.4 11.6 28.4 11.4 30.7 l-0.3 3.2 -34.4 0.3 c-18.8 0.1 -34.6 -0.1 -35 -0.5z"/>
  <path d="M765.2 279.7 c-5 -0.8 -3.9 -5.3 8.3 -34 6.1 -14.4 13.1 -30.9 15.5 -36.6 l4.3 -10.5 3.8 0 3.7 0 6.9 16.7 c3.8 9.1 10.7 25.9 15.7 37.2 5.4 12.9 8.7 22 8.7 24.3 l0 3.7 -31.9 -0.1 c-17.6 -0.1 -33.3 -0.4 -34.8 -0.6z"/>
  <path d="M699.1 153.3 c-1.5 -1.5 -1.6 -10.2 0 -11.9 0.7 -0.7 3 -1.2 5.1 -1.2 4.7 0 6.1 2.3 5.7 9 l-0.3 4.8 -4.6 0.3 c-2.7 0.2 -5.1 -0.2 -5.9 -1z"/>
 </g>
 <g fill="#052149">
  <path d="M418.1 647.6 c-2.8 -2.1 -3.6 -5 -1.4 -5 0.7 0 3.3 0.7 5.6 1.6 5.2 2 9.6 0.8 11.5 -3.3 1.7 -3.9 1.4 -5.9 -0.6 -4.9 -1 0.4 -3.9 0.9 -6.4 1.2 -8.4 0.7 -13.3 -5.6 -13.3 -17 0 -10.5 5.5 -16.1 14.8 -15 2.9 0.3 6.5 0.5 8.3 0.5 l3.2 0 0.5 13.6 c0.8 18.4 0 23.7 -4.2 27.5 -2.8 2.5 -4.1 2.9 -9.2 2.9 -4.5 0 -6.7 -0.5 -8.7 -2.1z m14.4 -17.5 c2 -1.8 2.4 -3.2 2.4 -9.2 0 -6.1 -0.3 -7.4 -2.6 -9.5 -3.1 -3.2 -7.1 -3.3 -10.1 -0.2 -4.2 4.3 -4.2 14.5 0 19.2 2.4 2.7 7.4 2.5 10.3 -0.3z"/>
  <path d="M661 649.1 c-2.5 -0.9 -5.1 -3.6 -5.1 -5.1 0 -1.8 3.1 -1.7 7.1 0.3 5.8 2.9 12.4 -0.5 12.4 -6.4 0 -2.6 -1 -3 -2.8 -1.2 -1.8 1.8 -9.5 1.3 -12.5 -0.8 -7.7 -5.6 -8.5 -21.9 -1.4 -28.1 2.9 -2.6 12.8 -3.6 14.8 -1.4 1.4 1.3 1.7 1.4 2.3 0.1 0.3 -0.8 1.7 -1.5 3.3 -1.5 l2.7 0 -0.4 18.7 c-0.4 20.2 -0.8 22.1 -5.9 24.8 -2.9 1.5 -11.2 1.9 -14.3 0.8z m12.3 -18.7 c1.6 -1.6 2 -3.4 2 -9.6 0 -7.1 -0.2 -7.8 -2.7 -9.7 -3.7 -2.9 -6.1 -2.7 -9.7 0.8 -2.7 2.7 -3 3.8 -3 9.1 0 7.8 2.5 11.5 7.8 11.5 2.1 0 4.3 -0.8 5.5 -2z"/>
  <path d="M390.4 637.1 c-10.5 -4.8 -13 -20.4 -4.5 -29.1 2.9 -3 3.8 -3.3 9 -3.3 3.4 0 6.7 0.6 7.9 1.5 3.1 2 5.5 7.8 5.5 12.7 l0 4.2 -10.7 0 c-5.9 0 -10.7 0.2 -10.7 0.5 0 0.3 0.6 2 1.4 4 1.8 4.4 6.7 6.5 11.3 4.9 4.3 -1.5 8.1 -1.5 7.6 0 -1.4 4.2 -11.4 7 -16.7 4.5z m11.7 -22.3 c-1.1 -4.1 -1.7 -4.7 -5.6 -5.5 -3.6 -0.7 -7.9 2.5 -9.1 6.5 -0.6 2.1 -0.5 2.3 7.6 2.3 l8.2 0 -1 -3.3z"/>
  <path d="M454.8 637.7 c-5 -1.6 -7.7 -5.1 -7.7 -9.9 0 -6.1 3.6 -8.9 12.8 -9.7 5.9 -0.5 6.1 -0.6 6.4 -3.6 0.7 -5.7 -7.1 -7.8 -11.5 -3.1 -2.7 2.9 -6.8 3.5 -6.8 0.9 0 -0.8 1.3 -2.9 2.9 -4.5 3.6 -3.6 10.8 -5 15.1 -2.9 5.5 2.7 6.3 5.2 6.8 19.5 l0.3 13 -2.8 0 c-1.4 0 -2.9 -0.5 -3.1 -1 -0.2 -0.7 -1.6 -0.5 -4.1 0.5 -4.1 1.6 -5.2 1.7 -8.5 0.7z m9.1 -6.5 c1.5 -1.3 3 -3.9 3.3 -5.6 l0.7 -3.4 -5.7 0 c-6.3 0 -8.9 1.6 -8.9 5.6 0 2.6 3.4 5.6 6.3 5.6 0.9 0 2.9 -1 4.3 -2.3z"/>
  <path d="M566.2 637.5 c-3.7 -1.5 -4.4 -4.4 -4.4 -16.8 l0 -11.9 -2.7 0 c-3.4 0 -3.1 -3.4 0.4 -3.9 1.7 -0.3 2.3 -1 2.3 -3.4 0 -2.7 0.3 -3 3.1 -3 2.8 0 3.1 0.3 3.1 3.1 0 2.8 0.3 3.1 3.1 3.1 2.4 0 3.1 0.5 3.1 1.9 0 1.4 -0.8 2.1 -2.8 2.4 l-2.9 0.3 -0.3 11.5 -0.3 11.5 2.9 0.3 c2.3 0.2 2.9 0.8 2.9 2.9 0 1.9 -0.6 2.6 -2.6 2.8 -1.4 0.1 -3.6 -0.2 -4.8 -0.7z"/>
  <path d="M588 637.5 c-6.4 -2 -9.8 -7.8 -9.8 -16.9 0 -10.5 4.8 -15.9 14.2 -15.9 5.1 0 6.2 0.4 8.7 3 2.7 2.9 4.6 8.2 4.7 13.2 0 2.1 -0.3 2.3 -11.2 2.3 l-11.3 0 1.1 3.1 c1.6 4.7 5.7 7.5 10 6.8 1.9 -0.4 5.2 -0.9 7.2 -1.2 l3.6 -0.6 -3.1 3.2 c-3.4 3.4 -9.2 4.7 -14.2 3.2z m11.7 -21.5 c0 -3 -4.5 -7.2 -7.7 -7.2 -3.2 0 -7.7 4.2 -7.7 7.2 0 1.8 0.6 2 7.7 2 7.1 0 7.7 -0.2 7.7 -2z"/>
  <path d="M697.5 637.5 c-1.5 -0.5 -3.8 -1.7 -4.9 -2.8 -7.2 -6.3 -6.2 -23.1 1.6 -28.2 2.6 -1.7 11.1 -2.4 14.3 -1.1 2.7 1 5.5 6.8 6.3 12.5 l0.7 5.3 -10.9 0 c-10.3 0 -10.8 0.1 -10.8 2.1 0 2.9 5.4 8.1 8.4 8.1 1.3 0 3.7 -0.7 5.3 -1.5 3.9 -2 7 -2 6.5 0.1 -0.8 4.5 -10.2 7.6 -16.6 5.5z m11.7 -21.5 c0 -3 -4.5 -7.2 -7.7 -7.2 -3.2 0 -7.7 4.2 -7.7 7.2 0 1.8 0.6 2 7.7 2 7.1 0 7.7 -0.2 7.7 -2z"/>
  <path d="M762.6 637.8 c-3.7 -0.7 -8.2 -5.7 -9.5 -10.5 -1.8 -6.8 -0.4 -13.9 3.6 -18.2 3.1 -3.4 3.9 -3.7 9.8 -4.1 6.1 -0.4 6.8 -0.2 9.3 2.6 1.5 1.5 3.1 4.1 3.4 5.7 0.6 2.5 0.5 2.8 -1.9 2.8 -1.9 0 -3 -0.7 -3.7 -2.6 -0.5 -1.4 -2.1 -3.1 -3.5 -3.7 -8.3 -3.8 -14.7 7.6 -10.3 18 2.5 6.1 10 7.3 13.4 2 1.6 -2.5 6.5 -3.7 6.5 -1.5 0 2.1 -2.5 6.2 -4.7 7.7 -2.6 1.6 -8.9 2.7 -12.4 1.8z"/>
  <path d="M794.4 637.8 c-5.1 -1 -10.5 -9.3 -10.5 -16.2 0 -4.5 2.5 -10.3 5.6 -13.5 3 -3 4 -3.4 8.9 -3.4 3.4 0 6.3 0.6 7.9 1.6 3.1 2.1 5.2 7.4 5.2 12.7 l0 4.1 -10.7 0 c-6.9 0 -10.7 0.4 -10.7 1 0 2.1 3.1 7.2 5 8.2 2.9 1.4 6.5 1.2 8.9 -0.5 2.1 -1.6 6.1 -2 7 -0.6 0.7 1.1 -3.4 4.8 -6.9 6.1 -2.9 1.1 -5.4 1.2 -9.6 0.4z m11.5 -22 c-1.7 -5.6 -6.4 -8.2 -10.8 -5.9 -1.6 0.9 -5 5.9 -5 7.7 0 0.3 3.7 0.5 8.3 0.5 8.1 0 8.2 0 7.6 -2.3z"/>
  <path d="M889.7 637.6 c-3.3 -1.3 -5.6 -4.6 -6.3 -8.5 -0.4 -3 0 -4.2 2.4 -6.9 2.6 -2.8 4 -3.4 10 -4.3 4 -0.5 7.4 -1.1 7.6 -1.4 1.1 -1.1 -1.8 -6.2 -4.1 -7.1 -3.5 -1.2 -7.7 0 -8.5 2.5 -0.4 1.4 -1.5 2 -3.7 2 -3.9 0 -3.9 -2 0.2 -6 2.9 -2.9 3.7 -3.2 9.7 -3.2 5.7 0 7 0.4 9.1 2.6 2.4 2.3 2.6 3.3 2.6 11.6 0 5 0.3 11.3 0.6 13.9 l0.7 4.7 -3.2 0 c-1.7 0 -3.3 -0.5 -3.5 -1.1 -0.2 -0.6 -1.4 -0.5 -3.4 0.5 -3.4 1.7 -7 1.9 -10.2 0.7z m12.1 -7.5 c1.1 -1.3 1.7 -3.5 1.5 -5.3 -0.3 -3.1 -0.4 -3.2 -5.3 -2.9 -8.1 0.4 -11.3 4.9 -6.7 9.5 2.7 2.7 7.7 2 10.4 -1.3z"/>
  <path d="M923.3 637.5 c-3.7 -1.5 -4.4 -4.4 -4.4 -16.8 l0 -11.9 -2.6 0 c-1.8 0 -2.6 -0.5 -2.6 -2 0 -1.5 0.7 -2 2.6 -2 2.4 0 2.6 -0.4 2.6 -4.1 0 -3.9 0.2 -4.1 3.1 -4.1 2.9 0 3.1 0.2 3.1 4.1 0 3.9 0.2 4.1 3.1 4.1 2.4 0 3.1 0.4 3.1 2 0 1.6 -0.7 2 -3.1 2 l-3.1 0 0 11.8 0 11.8 3.2 0 c2.8 0 3.1 0.3 2.8 2.9 -0.2 2.1 -0.9 2.8 -2.9 3 -1.4 0.1 -3.6 -0.2 -4.8 -0.7z"/>
  <path d="M966.6 637.5 c-10.8 -3.4 -14.3 -19.5 -6.1 -28.7 9.7 -10.7 24.9 -3.2 25 12.3 0 12 -8.6 19.5 -18.8 16.4z m9.7 -7.1 c2.7 -2.7 3 -3.7 3 -9.3 0 -5.6 -0.3 -6.7 -3 -9.3 -4.6 -4.5 -9.9 -3.7 -12.9 2.1 -3.1 5.9 -0.9 15.9 3.9 18.2 3.7 1.8 5.8 1.4 9 -1.7z"/>
  <path d="M351 615.5 l0 -22 3.1 0 3.1 0 0 19.4 0 19.4 10.2 0 10.2 0 0 2.6 0 2.6 -13.3 0 -13.3 0 0 -22z"/>
  <path d="M480.9 614.5 l0 -23 3.1 0 3.1 0 0 23 0 23 -3.1 0 -3.1 0 0 -23z"/>
  <path d="M511.6 615.5 l0 -22 3.1 0 3.1 0 0 22 0 22 -3.1 0 -3.1 0 0 -22z"/>
  <path d="M526 621.1 l0 -16.4 3.1 0 c2.1 0 3.1 0.5 3.1 1.7 0 1.4 0.2 1.4 2.1 -0.3 1.5 -1.3 3.7 -1.9 7.2 -1.9 8.8 0 11.1 4.6 11.2 23.3 l0 9.9 -3 0 -3 0 -0.4 -12.8 c-0.2 -7 -0.8 -13.2 -1.3 -13.7 -0.6 -0.6 -2.6 -1.3 -4.3 -1.7 -2.7 -0.5 -3.8 -0.1 -5.8 1.9 -2.6 2.6 -2.7 3.2 -2.7 14.5 l0 11.8 -3.1 0 -3.1 0 0 -16.4z"/>
  <path d="M611.9 614.5 l0 -23 3.1 0 3.1 0 0 23 0 23 -3.1 0 -3.1 0 0 -23z"/>
  <path d="M626.2 614.5 l0 -23 3.1 0 3.1 0 0 23 0 23 -3.1 0 -3.1 0 0 -23z"/>
  <path d="M640.8 621.9 l0.3 -15.7 2.9 -0.3 2.8 -0.3 0 15.9 0 16 -3.1 0 -3.2 0 0.3 -15.6z"/>
  <path d="M720.9 632 c-0.4 -3 -0.3 -10 0.2 -15.6 0.7 -9.4 1 -10.1 3.2 -10.4 1.2 -0.2 2.3 0.2 2.3 0.9 0 0.8 0.7 0.6 1.9 -0.5 1.4 -1.3 3.4 -1.6 7.8 -1.4 9 0.5 9.8 2.1 10 19 l0.2 13.5 -2.8 0 -2.9 0 0 -10.6 c0 -10.5 -1 -15.7 -3.4 -17.2 -2.4 -1.5 -5.9 -0.8 -8.4 1.7 -2.5 2.4 -2.6 3.1 -2.6 14.3 l0 11.8 -2.5 0 c-2.3 0 -2.6 -0.5 -3.2 -5.5z"/>
  <path d="M832.9 615.4 l0 -22.1 11.9 0.4 11.9 0.3 3.5 3.8 c2.9 3.2 3.5 4.6 3.5 8.5 0 5.4 -2.1 10.1 -5.4 12 -1.2 0.7 -5.9 1.5 -10.4 1.8 l-8.2 0.5 -0.3 8.5 -0.3 8.4 -3 0 -3.1 0 0 -22.1z m22.5 -2.5 c1.3 -1.3 2 -3.4 2 -6 0 -5.9 -3.4 -8.3 -11.9 -8.3 l-6.5 0 0 8.2 0 8.2 7.2 0 c5.8 0 7.6 -0.4 9.2 -2z"/>
  <path d="M870.8 619.9 c0 -9.7 -0.3 -20.2 -0.6 -23 l-0.7 -5.4 3.3 0 3.2 0 0 23 0 23 -2.6 0 -2.6 0 0 -17.6z"/>
  <path d="M939.3 623.2 l0 -14.3 -2.7 0 c-3.4 0 -3.1 -3.4 0.4 -3.9 1.9 -0.3 2.3 -1 2.3 -4.4 0 -5.8 3.5 -9.1 9.7 -9.1 3.9 0 4.6 0.3 4.6 2 0 1.5 -0.7 2 -2.9 2 -3.8 0 -5.3 1.7 -5.3 5.8 0 3.2 0.2 3.4 3.6 3.4 2.9 0 3.6 0.4 3.6 2 0 1.6 -0.7 2 -3.6 2 l-3.6 0 0 14.3 0 14.3 -3.1 0 -3.1 0 0 -14.3z"/>
  <path d="M991.5 621.1 l0 -16.4 3.1 0 c2.3 0 2.9 0.4 2.5 1.5 -0.8 2 0.6 1.9 2 -0.1 0.7 -0.8 2.8 -1.6 4.7 -1.7 3.2 -0.2 3.6 0.1 3.6 2.4 0 2 -0.6 2.7 -3.1 2.9 -5.9 0.7 -6.7 2.3 -6.7 15.8 l0 12.1 -3.1 0 -3.1 0 0 -16.4z"/>
  <path d="M1012.2 621.9 l0.3 -15.7 2.9 -0.3 c1.6 -0.2 2.8 0.1 2.8 0.9 0 0.8 0.6 0.6 1.8 -0.4 2.9 -2.7 11.9 -2.4 14.6 0.4 l2.1 2.1 2.3 -2.1 c3.5 -3.3 11.8 -3 15 0.5 2.3 2.5 2.5 3.5 2.8 16.4 l0.4 13.7 -3.2 0 -3.2 0 0 -12.3 c0 -10.9 -0.2 -12.5 -2 -14.3 -2.7 -2.7 -5.2 -2.6 -8.6 0.1 -2.6 2 -2.7 2.4 -2.7 14.3 l0 12.2 -3.1 0 -3.1 0 0 -12.1 c0 -9.2 -0.4 -12.6 -1.6 -14.3 -2 -3 -6 -2.9 -9.1 0.3 -2.5 2.4 -2.6 3.1 -2.6 14.3 l0 11.8 -3.1 0 -3.2 0 0.3 -15.6z"/>
  <path d="M798.2 569.9 c-6.9 -1.3 -16.9 -6.4 -21.3 -10.8 -14.2 -14.2 -14 -44.4 0.3 -57.6 5.9 -5.4 8.5 -5.3 11.6 0.3 l2.5 4.5 -2.7 5.5 c-7.5 15.1 -3.1 31.8 9.7 37.1 4.8 2 17.1 2.1 21.7 0.2 5.3 -2.3 11.4 -8.3 13.7 -13.7 3.7 -8.5 4.3 -16.7 4.3 -55.8 l0 -37.7 3.8 -1.5 c2 -0.9 6.1 -1.8 9.1 -2.1 l5.3 -0.6 0.4 8.6 c0.3 4.7 0.6 21.5 0.7 37.1 0.2 31.9 0.5 33.4 7 36.1 2.8 1.1 6.8 1.4 16.3 1.1 18.1 -0.4 18.8 -1.4 18.8 -26.6 l0 -15 3.9 -1.1 c2 -0.6 6.1 -1 8.9 -0.8 l5.1 0.3 0.5 17.4 c0.7 25.5 1.2 26.1 23.7 26.1 l13.3 0 3 -3 3 -3 0 -36.8 0 -36.8 3.8 -1.3 c2.1 -0.6 6.3 -1.2 9.5 -1.3 l5.6 -0.1 0.3 38.9 c0.1 24.6 -0.1 40.7 -0.8 44 -1.4 6.9 -5.2 12.3 -10.5 15 -4.1 2.3 -5.3 2.4 -26.8 2.4 l-22.5 0 -5 -2.9 -5 -2.8 -5.7 2.8 c-5.4 2.7 -6.7 2.9 -21.8 3.2 -12.5 0.3 -17.3 0 -21.6 -1.2 -6.8 -1.9 -6.9 -1.9 -6.9 -0.3 0 3.3 -7.5 16.5 -11.8 20.8 -10.1 10 -27.4 14.7 -43.4 11.6z"/>
  <path d="M891.4 569.5 c-7.2 -4 -6.7 -15.9 0.8 -19 9.6 -3.9 17.8 5.8 12.9 15.3 -2.7 5 -8.4 6.7 -13.7 3.7z"/>
  <path d="M912.1 567.5 c-2.5 -2.5 -3.5 -4.4 -3.5 -6.7 0 -10.1 10.9 -15.1 17.5 -8.2 6.4 6.9 2.1 18.3 -6.8 18.3 -3 0 -4.6 -0.8 -7.3 -3.5z"/>
  <path d="M467.6 553.3 c-1.9 -0.6 -5.2 -2.9 -7.3 -4.9 -8.5 -8.5 -7.8 -22.5 1.5 -30.3 5.1 -4.1 10.3 -5.6 22.6 -6.3 l10.2 -0.6 0.3 -4.6 c0.5 -6.3 -1.3 -11.7 -5 -14.7 -6.7 -5.6 -18.1 -2.3 -20.2 5.8 -0.8 3.1 -1.2 3.3 -5.8 3.6 l-4.9 0.3 0.6 -5.3 c1.2 -10.3 4.8 -13 19.4 -14.5 9.7 -0.9 11.1 -0.9 17.9 1.2 5.3 1.5 8.3 3.2 10.8 5.8 6.4 6.7 7.1 10.1 7.6 39.1 l0.4 25.8 -6.8 0 c-5.8 0 -6.9 -0.3 -8.6 -2.6 -2.1 -2.7 -4.7 -3.3 -5.9 -1.4 -0.3 0.6 -2.6 2 -4.9 3.1 -4.8 2.1 -16.2 2.5 -22.1 0.6z m21 -8.3 c5.1 -2.1 7 -6.5 7.1 -17 l0.1 -8.7 -5.9 0.1 c-7 0.2 -10.4 2.3 -13.2 7.7 -4.2 8.1 -0.2 18.9 7.2 19.2 0.7 0.1 2.9 -0.5 4.8 -1.3z"/>
  <path d="M588.8 553.6 c-5.5 -1.7 -13.1 -7.5 -16.6 -12.7 -4.9 -7.5 -6.7 -14.5 -6.1 -25.6 0.6 -14.1 5.9 -24.1 15.9 -30 4 -2.4 6.1 -2.8 15 -3.2 9.2 -0.4 10.8 -0.2 15.5 1.9 6.8 3.2 12.3 9.1 14.8 16 2.1 5.8 3.1 17.2 1.6 19.6 -0.7 1.1 -4.8 1.3 -22 1 l-21.1 -0.4 0.3 4.1 c0.5 7.7 3.1 14.2 6.8 17.8 3 2.9 4.6 3.6 9.1 4 6.7 0.5 9.8 -0.9 15.9 -7.1 4 -4.2 4.3 -4.3 6.9 -3 1.4 0.7 2.6 1.7 2.6 2.1 0 2 -7.3 9.9 -11.7 12.6 -4.4 2.8 -5.9 3.1 -14.3 3.4 -5.1 0.1 -10.7 -0.2 -12.5 -0.7z m20.1 -45.7 c0 -10.7 -4.6 -18.7 -10.7 -18.7 -2.6 0 -4.2 0.9 -7.1 4.1 -2 2.3 -3.7 4.4 -3.7 4.9 0 0.4 -0.4 3.5 -1 6.8 -0.5 3.3 -0.7 6.4 -0.4 6.9 0.3 0.5 5.5 0.9 11.8 0.9 l11.2 0 0 -4.8z"/>
  <path d="M660.1 552.5 c-14.7 -5.8 -23.6 -23.8 -20.6 -41.5 1.5 -8.9 3.9 -14.3 8.8 -19.6 5.9 -6.7 10.5 -8.5 22.2 -9.1 11.9 -0.6 17.2 1 23.8 7.2 6.1 5.7 8.9 12.7 9 22.8 l0.1 8.2 -21.7 0 c-11.9 0 -21.9 0.3 -22.2 0.6 -1 0.9 1.4 12.3 3.5 16.3 3.2 6.1 6.4 8.5 12.7 9 4.7 0.4 6.3 0 10.2 -2.3 2.6 -1.4 5.5 -4.1 6.8 -5.7 2.3 -3.2 4.9 -3.9 7 -1.8 2 2 1.4 3.7 -3.1 8.6 -6.4 7.1 -10.8 8.9 -21.8 9.3 -7.6 0.3 -10.2 -0.1 -14.7 -1.8z m23.2 -46.3 c-1.4 -17.5 -14 -23.1 -21.1 -9.4 -1.4 2.8 -3.4 13.8 -2.7 14.9 0.3 0.5 5.8 0.9 12.4 0.9 l11.9 0 -0.5 -6.4z"/>
  <path d="M357.9 510.3 c-0.3 -48.5 -0.2 -47.9 -7.4 -49.2 -3.1 -0.6 -3.7 -1.1 -3.7 -3.2 l0 -2.6 26.9 0 c30.4 0 36.8 0.9 48.4 6.7 8.7 4.3 14.7 10.4 18.8 19.2 9.2 19.9 4.4 46.8 -10.6 59.7 -5.8 5 -17.2 10.2 -25.3 11.6 -3.7 0.6 -15.8 1.1 -26.8 1.1 l-20.1 0 -0.3 -43.3z m46 32.4 c6.7 -3.5 12.3 -10.1 15.8 -18.8 2 -4.9 2.4 -7.5 2.4 -20.1 l0 -14.3 -3.9 -7.8 c-4.8 -9.7 -9.9 -14.4 -18.9 -17.2 -7.4 -2.4 -12.7 -2.6 -17.5 -0.9 l-3.2 1.1 0.2 39.5 0.3 39.5 2.6 1.4 c4.3 2.3 15.5 1 22.3 -2.5z"/>
  <path d="M531.9 509.7 c-0.3 -41 -0.4 -44 -2.3 -45.9 -1 -1.2 -3.2 -2.5 -4.8 -2.8 -2.3 -0.5 -3 -1.2 -3 -3.2 0 -2.5 0 -2.5 11.6 -2.5 11.4 0 11.7 0.1 14.3 2.9 1.7 1.8 3.1 4.8 3.8 8.3 0.6 3.2 1 23 1 46.3 l0 40.8 -10.2 0 -10.1 0 -0.3 -43.9z"/>
  <path d="M717.1 510.9 c-0.4 -47.9 -0.4 -47.6 -7.2 -49.6 -3.1 -0.9 -3.9 -1.6 -3.9 -3.6 0 -2.4 0.1 -2.4 11.4 -2.4 6.2 0 12.2 0.5 13.4 1.1 1.1 0.6 2.9 3 4 5.3 1.7 4 1.9 7.4 1.9 48.1 l0 43.7 -9.6 0 -9.6 0 -0.4 -42.7z"/>
  <path d="M991.8 531.2 c0.3 -4.5 0.8 -8.6 1.2 -9.2 0.4 -0.7 8.2 -1.1 22.6 -1.1 l21.9 0 0 -5.5 c0 -14.7 -9.6 -25.3 -24.6 -26.9 l-6.4 -0.6 0.7 -7.3 c0.4 -5 1.2 -7.7 2.4 -8.5 2.6 -1.9 11.6 -1.6 18.8 0.7 12.4 3.9 20.7 12.6 25.6 26.7 2.7 7.7 4 32 2 37 l-1.1 2.8 -31.8 0 -31.9 0 0.6 -8.1z"/>
  <path d="M696.8 420.1 c-8.7 -1.9 -13.3 -4.6 -20 -11.6 l-6.2 -6.4 -58.5 0 c-66.2 0 -60.2 0.9 -56.9 -8.3 1.2 -3.5 6.5 -35.8 6.5 -39.9 0 -0.4 2.7 -0.9 5.8 -1.1 l5.9 -0.3 4.6 -11.3 4.7 -11.3 10.1 -0.3 c32.1 -1 69.8 9.6 91.3 25.8 7.1 5.4 16 14.6 18.3 19.3 l1.6 3.1 3.1 -4.9 c10.5 -17 37.8 -32.9 65.8 -38.8 12 -2.5 32.3 -4.7 43.2 -4.7 l9.3 0 3.1 7.5 c1.6 4 3.7 9.1 4.4 11.3 1.2 3.7 1.5 3.8 6 3.8 2.6 0 5.4 0.6 6.3 1.3 1.1 0.8 2.1 6 3.8 18.1 1.1 9.3 3 19.6 4.1 23 1 3.4 1.7 6.4 1.4 7 -0.2 0.4 -26.7 0.7 -58.7 0.7 l-58.3 0 -6.9 7.1 c-5.2 5.3 -8.2 7.5 -12.5 9.1 -7.7 2.7 -14.7 3.4 -21.5 1.8z m19 -16.2 c3.4 -2.4 5.7 -4.9 7.5 -8.5 1.3 -2.8 3 -5.4 3.6 -5.8 0.6 -0.4 25.6 -0.8 55.6 -0.8 31.7 0 54.6 -0.4 54.9 -0.9 0.4 -0.5 0.1 -5.6 -0.5 -11.3 l-1.2 -10.3 -14.4 0 c-40.4 0 -81.6 10.3 -102.4 25.6 -12.4 9.1 -15.5 9.3 -27.2 1.4 -26 -17.4 -55.4 -25.4 -97.7 -26.7 -18.6 -0.6 -19.6 -0.5 -20.7 1.3 -0.9 1.6 -2.8 17.2 -2.4 19.5 0 0.5 25.1 1 55.6 1.3 l55.4 0.5 2.5 4.6 c4.9 9.2 11.3 13.2 21.4 13.3 4.3 0 6.2 -0.6 10.2 -3.3z m35.5 -41.2 c15.7 -4.6 37.6 -8.4 54.4 -9.2 7.4 -0.4 13.8 -0.8 14.5 -1 0.9 -0.3 0.8 -1.6 -0.4 -5.2 l-1.6 -4.8 -11.9 0.6 c-22.6 1.2 -46 6.8 -61.8 14.6 -6.5 3.4 -16.7 10.4 -20.6 14.5 -2.9 3.1 -2.8 3.1 6.1 -1.3 5 -2.6 14.5 -6.1 21.2 -8.2z m-68.4 8 c-5.6 -5 -16.4 -11.9 -23.3 -15 -14.4 -6.3 -38.2 -11.6 -57 -12.6 l-11.9 -0.6 -1.7 4.4 c-0.9 2.4 -1.5 4.7 -1.2 5.1 0.2 0.4 6.8 1 14.5 1.3 26 1.1 54.5 7.6 73.1 16.5 5.3 2.5 10.1 4.5 10.6 4.6 0.6 0 -0.8 -1.6 -3.1 -3.7z"/>
  <path d="M688.7 348.1 l-5.2 -5 0.3 -67.4 c0.3 -66.8 0.3 -67.4 2.6 -71.5 1.1 -2.3 3.4 -5.2 4.8 -6.5 1.4 -1.4 2.7 -3.4 2.7 -4.4 0 -3.2 -9 -11.8 -15.7 -15.1 -10.5 -5.3 -18.4 -4.3 -40 5.2 -6.4 2.8 -13.1 5.3 -14.8 5.6 -1.7 0.4 -3.2 0.8 -3.2 1.1 0 0.2 4.4 10.8 9.8 23.6 5.4 12.8 13.5 31.9 17.8 42.5 4.4 10.6 9 20.5 10.3 21.8 2.1 2.3 2.3 2.8 1 8 -4.1 18.5 -25 33.4 -46.8 33.4 -20.5 0 -36.4 -8.9 -45.1 -25.1 -1.7 -3.4 -3.5 -7.9 -3.9 -10 -0.6 -3.4 -0.4 -4.3 1.8 -6.7 1.4 -1.5 4.4 -7.4 6.7 -13 2.3 -5.6 10.3 -24.7 17.9 -42.2 l13.8 -32 -4.3 -1.9 c-6.5 -3 -10 -7.3 -9.6 -12 0.2 -3.3 0.8 -4.1 3.2 -4.9 2 -0.7 3.4 -0.7 4.6 0.2 7.4 5.3 7.8 5.4 15 5 6 -0.3 9.6 -1.3 22.4 -6.8 9.1 -3.9 17.9 -6.9 22 -7.5 14.3 -2.3 26.2 0.7 35.9 8.9 l4.6 3.9 0.3 -5.3 c0.3 -4.9 0 -5.7 -3.3 -9.3 -4.2 -4.7 -5.1 -7.6 -4.4 -13.9 0.6 -5.8 10 -20.6 13.7 -21.5 1.3 -0.4 2.6 -0.5 2.8 -0.3 14.4 20.5 15.6 25.8 7.3 35.4 -3.1 3.7 -3.6 4.9 -3.6 9.5 l0 5.3 4.9 -3.6 c9.9 -7.3 15 -9.1 26.2 -9.6 11.5 -0.4 13.9 0.2 38.3 10.3 15.1 6.3 21.5 6.9 27.6 1.8 2.4 -1.7 5.1 -3.3 6.2 -3.3 2.7 0 6.2 3.5 6.2 5.9 0 3.3 -4.9 9.1 -9.7 11.5 -2.7 1.2 -4.5 2.8 -4.3 3.5 0.3 0.6 8.2 18.9 17.5 40.8 9.3 21.8 17 40 17 40.6 0 0.5 1.2 2 2.7 3.5 2.4 2.1 2.7 3.1 2.3 7.1 -0.3 2.6 -1.6 6.9 -3 9.6 -3 6.2 -14.3 17.7 -20.4 20.6 -15.8 7.5 -35.2 7.1 -50.3 -1 -7.3 -3.9 -16.6 -13.6 -19.9 -20.8 -3.1 -6.4 -3.3 -13.3 -0.5 -14.7 1 -0.6 2.7 -3.1 3.5 -5.4 0.8 -2.5 8.7 -21.4 17.5 -42.2 8.8 -20.8 16 -38.4 16 -39.1 0 -0.6 -1.3 -1.4 -3.1 -1.7 -1.6 -0.4 -9.6 -3.5 -17.6 -7.1 -14.2 -6.1 -14.8 -6.3 -23.8 -6.3 -7.8 -0.1 -9.9 0.3 -13.7 2.3 -5.2 2.9 -14.1 10.8 -14.9 13.5 -0.4 1.2 0.8 3.7 3.4 7.2 2.3 3 4.5 7.1 5.2 9.2 1.5 5.2 1.6 132.9 0 136.3 -1.1 2.6 -9.1 9 -10.9 9 -0.9 0 -1.2 -8.7 -1.4 -32.4 -0.5 -118.1 -0.3 -110.1 -3.3 -113.6 -2.1 -2.5 -2.8 -2.7 -4.9 -1.6 -1.4 0.6 -3.3 2.8 -4.2 4.7 -1.5 3.3 -1.7 10.5 -1.7 73.3 0 61.3 -0.2 69.7 -1.5 69.7 -0.8 0 -3.9 -2.3 -6.7 -4.9z m-60 -46 c4.1 -1.9 8.9 -5.2 11.3 -7.7 l4.1 -4.3 -31.6 -0.3 c-17.3 -0.1 -31.7 0 -31.9 0.2 -0.9 0.9 1.8 4.6 6 7.9 11.1 8.8 28.9 10.5 42.2 4.2z m185.3 0.5 c5.6 -2.6 14.8 -10.2 14.8 -12.2 0 -0.4 -14.2 -0.8 -31.7 -0.8 -17.4 0 -31.7 0.4 -31.7 0.9 0 1.3 8.6 8.9 12.4 10.9 6.2 3.2 12.5 4.4 21.4 4.2 7.1 -0.2 9.8 -0.8 14.8 -3.1z m-171.1 -26 c0.3 -0.5 -2 -6.8 -5.2 -14.1 -3.1 -7.3 -10.1 -23.8 -15.5 -36.6 -5.4 -12.9 -10.3 -23.4 -10.8 -23.4 -0.5 0 -2.1 3.2 -3.7 7.1 -1.5 3.8 -8.5 20.4 -15.6 36.8 -7 16.5 -12.5 30.2 -12.2 30.5 0.8 0.8 62.4 0.6 62.9 -0.2z m185.5 -1.1 c-0.3 -1 -4.3 -10.5 -8.9 -21.2 -4.5 -10.7 -11.3 -26.9 -15 -36 -3.8 -9.2 -7.2 -16.7 -7.5 -16.7 -0.4 0 -2.7 4.7 -5 10.5 -2.4 5.7 -9.3 22.2 -15.5 36.6 -6.1 14.4 -11.2 26.5 -11.2 26.8 0 1.1 6.1 1.4 34.6 1.6 27.4 0.1 29 0 28.4 -1.7z m-121.6 -126.6 c0.1 -1.1 -0.4 -3 -1.2 -4.1 -1.2 -1.6 -1.6 -1.7 -3.1 -0.6 -1.9 1.6 -2.1 4.3 -0.4 6 1.8 1.8 4.3 1 4.7 -1.3z"/>
 </g>
</svg>