<?xml version="1.0" standalone="no"?>
<!DOCTYPE svg PUBLIC "-//W3C//DTD SVG 20010904//EN"
 "http://www.w3.org/TR/2001/REC-SVG-20010904/DTD/svg10.dtd">
<svg version="1.0" xmlns="http://www.w3.org/2000/svg"
 width="1408.000000pt" height="768.000000pt" viewBox="0 0 1408.000000 768.000000"
 preserveAspectRatio="xMidYMid meet">

<g transform="translate(0.000000,768.000000) scale(0.100000,-0.100000)"
fill="#000000" stroke="none">
<path d="M6945 6039 c-112 -162 -135 -208 -135 -277 0 -69 18 -110 82 -182
l53 -61 1 -84 c0 -47 -1 -85 -3 -85 -2 0 -34 26 -72 58 -113 95 -231 143 -386
157 -146 14 -312 -27 -554 -135 -150 -66 -260 -100 -351 -107 -86 -6 -117 4
-183 63 -29 27 -46 34 -78 34 -52 0 -73 -12 -89 -49 -30 -73 31 -159 150 -214
36 -17 66 -31 67 -32 2 -1 -40 -100 -93 -221 -136 -310 -149 -340 -269 -619
-59 -137 -118 -274 -131 -303 -13 -29 -36 -80 -50 -114 -14 -34 -39 -74 -55
-89 -35 -32 -37 -62 -10 -147 58 -186 213 -349 409 -428 100 -40 173 -55 297
-61 209 -9 388 44 544 162 129 98 241 274 249 391 4 59 3 62 -26 83 -17 12
-34 32 -38 44 -4 12 -22 55 -40 95 -19 41 -34 75 -34 77 0 3 -13 34 -30 69
-16 36 -41 94 -56 128 -42 101 -224 517 -256 588 -17 36 -45 101 -63 145 -19
44 -45 105 -59 135 -14 30 -26 60 -26 67 0 7 17 15 38 19 49 9 155 48 327 122
77 32 172 67 212 76 183 41 355 -1 491 -120 54 -47 102 -117 102 -149 0 -10
-22 -41 -49 -70 -61 -65 -87 -116 -101 -196 -12 -77 -13 -1864 -1 -1982 7 -61
14 -83 32 -103 35 -38 139 -114 155 -114 12 0 14 169 16 1093 l3 1093 27 42
c16 23 41 48 58 57 29 15 30 14 66 -21 68 -69 64 7 64 -1184 0 -910 2 -1080
14 -1080 28 0 161 108 179 144 16 34 17 108 17 1026 0 694 -3 1005 -11 1042
-15 71 -38 114 -98 184 -28 32 -51 66 -51 74 0 49 115 163 220 219 172 92 331
81 616 -42 82 -36 181 -75 219 -87 39 -12 81 -25 95 -30 14 -4 24 -11 23 -16
-1 -5 -52 -124 -113 -264 -189 -433 -339 -779 -397 -915 -36 -85 -67 -142 -89
-165 -41 -43 -43 -70 -13 -158 37 -111 137 -243 244 -322 362 -268 936 -185
1166 168 59 90 90 170 92 240 2 48 -1 56 -29 80 -17 15 -34 34 -37 42 -9 29
-206 478 -412 943 -75 170 -140 319 -145 331 -7 20 -3 24 41 39 139 50 218
175 158 251 -16 21 -29 26 -64 26 -37 0 -51 -7 -89 -39 -60 -52 -102 -65 -191
-58 -84 6 -206 46 -368 119 -205 92 -322 122 -477 122 -190 -1 -345 -63 -475
-190 l-45 -43 0 90 0 91 50 55 c71 78 90 119 90 195 0 49 -7 75 -28 115 -28
54 -193 292 -202 292 -3 0 -45 -59 -95 -130z m141 -246 c5 -17 0 -31 -17 -49
-28 -30 -43 -30 -63 -2 -22 32 -20 52 11 88 l27 32 18 -22 c10 -12 21 -33 24
-47z m-1482 -881 c17 -40 104 -241 311 -717 24 -55 71 -163 105 -240 34 -77
64 -146 67 -152 4 -10 -101 -13 -506 -13 -281 0 -511 3 -511 6 0 3 18 45 39
92 47 102 189 430 256 587 124 294 208 485 214 485 3 0 15 -21 25 -48z m3131
-477 c103 -236 207 -474 231 -527 24 -54 44 -102 44 -108 0 -7 -163 -10 -505
-10 -278 0 -505 4 -505 8 0 5 77 186 171 403 94 217 195 450 224 519 29 69 66
152 81 185 l27 60 23 -50 c12 -27 106 -243 209 -480z m-2655 -846 c0 -7 -30
-41 -67 -78 -79 -77 -163 -122 -285 -153 -184 -46 -398 0 -557 121 -34 26 -91
96 -91 113 0 4 225 8 500 8 365 0 500 -3 500 -11z m2930 0 c0 -6 -28 -40 -62
-76 -151 -157 -411 -213 -644 -139 -117 37 -255 134 -294 205 l-11 21 506 0
c357 0 505 -3 505 -11z"/>
<path d="M5113 2944 c-11 -22 -44 -100 -73 -175 l-54 -136 -90 -7 c-50 -4 -93
-11 -96 -16 -3 -6 -23 -133 -43 -284 -28 -204 -45 -294 -66 -352 -15 -44 -26
-87 -24 -96 4 -17 57 -18 930 -18 l926 0 36 -42 c120 -141 208 -201 342 -233
75 -17 196 -19 271 -4 29 6 90 29 136 51 82 39 116 67 218 182 l41 46 926 0
927 0 0 20 c0 12 -13 60 -29 108 -22 64 -37 151 -61 332 -17 135 -33 257 -36
272 -5 25 -8 27 -92 33 -48 3 -91 8 -97 10 -5 1 -39 78 -74 169 -56 145 -67
167 -89 173 -41 10 -408 -5 -537 -22 -407 -53 -744 -169 -1009 -348 -111 -74
-268 -231 -318 -316 l-36 -63 -31 54 c-107 188 -374 391 -667 509 -288 115
-615 177 -986 186 l-226 6 -19 -39z m407 -174 c393 -34 736 -133 993 -286 72
-43 211 -149 247 -189 23 -25 17 -23 -65 18 -365 184 -882 300 -1372 308 -74
2 -123 6 -123 13 0 5 10 40 22 78 l22 68 80 0 c45 0 133 -5 196 -10z m3348
-59 c12 -38 22 -73 22 -79 0 -5 -55 -10 -127 -11 -479 -5 -1075 -141 -1391
-318 -35 -19 -66 -33 -68 -30 -2 2 24 29 58 59 180 157 434 286 698 353 235
59 465 92 670 94 l115 1 23 -69z m-3402 -301 c336 -27 650 -88 909 -177 181
-63 312 -127 440 -217 144 -102 160 -110 225 -110 65 0 91 12 222 105 347 247
913 391 1588 406 l266 6 22 -159 c12 -87 22 -167 22 -176 0 -17 -48 -18 -857
-19 -638 0 -867 -3 -892 -12 -28 -10 -37 -22 -58 -73 -32 -82 -81 -137 -151
-171 -50 -24 -69 -27 -152 -28 -84 0 -102 3 -156 28 -77 36 -112 72 -159 164
-29 56 -44 74 -67 82 -21 8 -308 11 -891 11 -683 0 -858 3 -854 13 2 6 15 85
27 175 l23 162 182 0 c100 0 240 -5 311 -10z"/>
</g>
</svg>
